<?xml version="1.0" standalone="no"?>
<!DOCTYPE svg PUBLIC "-//W3C//DTD SVG 20010904//EN"
 "http://www.w3.org/TR/2001/REC-SVG-20010904/DTD/svg10.dtd">
<svg version="1.0" xmlns="http://www.w3.org/2000/svg"
 width="1024.000000pt" height="1024.000000pt" viewBox="0 0 1024.000000 1024.000000"
 preserveAspectRatio="xMidYMid meet">

<g transform="translate(0.000000,1024.000000) scale(0.100000,-0.100000)"
fill="#ffa600ff" stroke="none">
<path d="M4970 9060 c-666 -68 -1209 -539 -1352 -1175 -18 -77 -21 -136 -25
-417 l-5 -328 -42 0 c-94 0 -222 -27 -290 -61 -138 -68 -272 -213 -322 -344
-18 -48 -19 -102 -19 -1475 l0 -1425 24 -79 c37 -118 109 -216 223 -306 47
-37 151 -79 218 -89 39 -5 735 -8 1745 -7 l1680 2 78 22 c200 56 322 171 395
374 l26 73 9 680 9 679 43 51 c218 257 315 601 260 921 -86 500 -439 887 -890
973 l-90 18 -2 274 c-3 303 -10 373 -54 533 -106 381 -353 697 -704 904 -257
152 -619 231 -915 202z m318 -521 c35 -5 101 -21 145 -36 337 -106 583 -365
674 -711 24 -90 26 -117 31 -374 l4 -277 -1029 -1 -1029 0 3 127 c8 280 22
468 43 548 70 274 273 513 541 639 192 90 399 119 617 85z m1322 -1599 c202
-35 352 -110 485 -245 130 -132 241 -323 287 -495 20 -72 23 -109 22 -240 0
-138 -3 -165 -28 -245 -36 -121 -123 -293 -193 -385 -66 -84 -161 -167 -254
-222 -179 -106 -495 -154 -739 -112 l-94 16 -171 -174 c-171 -175 -263 -259
-299 -272 -15 -5 -32 6 -73 50 -29 30 -53 62 -53 69 0 7 130 141 289 296 158
156 295 294 304 307 l15 24 83 -28 c76 -25 99 -28 234 -28 170 -1 239 14 370
82 83 43 203 159 253 244 105 178 125 407 56 645 -55 192 -129 279 -315 373
-130 66 -184 80 -309 80 -215 0 -370 -58 -500 -189 -137 -136 -208 -300 -217
-496 -6 -129 7 -196 62 -304 l35 -70 -102 -108 c-55 -59 -125 -138 -154 -174
-29 -37 -151 -168 -270 -290 -119 -123 -241 -253 -272 -289 -93 -107 -247
-274 -428 -465 -94 -99 -179 -195 -188 -212 -35 -68 -8 -161 61 -208 33 -22
48 -25 126 -25 87 0 90 1 146 40 31 22 61 40 67 40 5 0 38 -29 73 -64 75 -75
75 -82 -4 -155 -66 -60 -70 -61 -325 -63 -159 -2 -205 1 -251 14 -78 24 -119
55 -148 113 -25 47 -26 57 -26 220 0 235 -5 225 274 510 119 121 268 273 331
338 l115 118 6 87 c4 48 7 123 8 168 l1 81 -41 12 c-89 27 -190 158 -220 286
-18 80 -14 210 10 285 25 78 55 125 144 224 54 60 83 83 144 113 67 33 85 38
167 41 113 4 213 -21 208 -54 -1 -10 -5 -112 -9 -226 l-6 -206 -125 -144 c-69
-79 -149 -170 -179 -202 l-53 -59 0 -92 c0 -51 -3 -126 -6 -168 -4 -44 -3 -77
2 -76 5 1 38 33 74 72 35 40 173 187 306 328 l241 256 -19 74 c-25 97 -34 263
-19 359 41 268 180 512 366 645 70 50 233 138 289 155 132 42 272 48 436 20z
m188 -707 c19 -9 46 -34 60 -56 23 -35 27 -51 27 -118 0 -94 -16 -121 -95
-161 -67 -35 -129 -37 -190 -5 -66 33 -84 65 -88 151 -3 59 0 81 17 114 47 91
164 124 269 75z m-1408 -2000 c0 -7 -40 -54 -89 -105 -101 -105 -94 -104 -177
-27 -87 80 -89 64 22 183 l98 105 73 -71 c40 -40 73 -78 73 -85z"/>
<path d="M3194 2896 c-84 -19 -139 -49 -195 -107 -50 -51 -89 -124 -107 -199
-7 -28 -12 -219 -13 -500 -2 -406 0 -462 15 -520 36 -134 105 -221 214 -273
65 -31 72 -32 197 -32 122 0 134 2 186 28 143 70 209 206 209 433 l0 111 -137
5 c-76 3 -142 3 -147 0 -5 -3 -6 -55 -3 -118 6 -105 5 -115 -16 -146 -14 -21
-38 -38 -64 -48 -38 -13 -46 -12 -77 3 -72 34 -71 24 -74 477 -2 223 -1 439 3
480 6 66 11 78 40 107 27 27 41 33 75 33 34 0 48 -6 76 -34 l34 -34 0 -116 0
-116 145 0 145 0 0 98 c0 121 -14 199 -49 277 -34 75 -110 146 -188 175 -72
27 -190 34 -269 16z"/>
<path d="M5064 2896 c-85 -20 -132 -46 -187 -105 -68 -73 -106 -158 -113 -257
-12 -158 29 -297 119 -399 25 -28 102 -89 174 -137 131 -88 215 -165 234 -215
18 -47 14 -138 -8 -175 -26 -45 -78 -78 -122 -78 -79 0 -111 56 -111 190 0
106 11 100 -178 99 l-132 0 0 -52 c0 -71 24 -200 49 -267 35 -92 86 -150 172
-194 65 -33 87 -39 162 -43 257 -16 431 113 467 346 14 85 0 224 -30 304 -28
74 -104 163 -200 232 -211 153 -245 181 -273 226 -60 99 -39 221 47 263 36 17
43 18 79 5 63 -22 80 -54 87 -158 3 -49 7 -91 10 -94 3 -2 70 -7 149 -10 l143
-6 -4 117 c-4 88 -11 130 -27 172 -46 114 -128 193 -236 226 -72 22 -199 26
-271 10z"/>
<path d="M2192 2889 c-160 -31 -286 -168 -311 -339 -5 -36 -11 -267 -13 -515
-3 -448 -3 -450 20 -517 55 -160 161 -242 343 -268 195 -28 388 73 448 234 41
112 46 171 46 611 0 412 0 421 -23 495 -63 201 -207 312 -402 309 -36 -1 -84
-5 -108 -10z m175 -289 c69 -42 68 -36 68 -525 0 -422 -1 -441 -20 -473 -40
-68 -134 -91 -196 -49 -61 41 -59 30 -57 517 3 503 1 490 80 529 53 26 84 26
125 1z"/>
<path d="M4434 2872 c-18 -3 -39 -42 -117 -225 -53 -122 -115 -262 -139 -312
l-43 -90 -3 313 -2 312 -148 0 -147 0 0 -790 c1 -434 3 -792 7 -795 3 -3 69
-3 147 1 l141 7 0 234 0 233 46 86 47 86 63 -209 c34 -114 80 -257 101 -318
l38 -110 169 -3 c158 -2 168 -1 161 15 -26 69 -160 432 -239 648 l-95 260 46
105 c26 58 93 204 149 325 56 121 101 221 99 223 -4 4 -255 8 -281 4z"/>
<path d="M5750 2875 c-1 0 -2 -540 -1 -987 l1 -598 142 0 141 0 -6 533 c-6
596 -4 608 52 317 18 -91 52 -262 76 -380 35 -173 85 -445 85 -466 0 -2 38 -4
84 -4 l85 0 10 53 c6 28 13 70 16 92 20 129 169 865 181 890 14 31 14 -158 -2
-797 l-6 -238 147 0 146 0 -5 433 c-3 237 -5 593 -6 789 l0 357 -181 3 c-100
2 -183 0 -185 -4 -3 -4 -24 -94 -49 -200 -100 -441 -165 -684 -165 -617 0 8
-33 145 -74 305 -41 159 -86 342 -101 407 l-27 118 -179 -3 c-98 -2 -179 -3
-179 -3z"/>
<path d="M7593 2873 l-103 -4 0 -122 c0 -67 -3 -132 -6 -144 -6 -23 -6 -23
125 -23 l131 0 0 -645 0 -645 145 0 c144 0 145 0 145 23 1 12 0 302 0 645 l-1
622 142 0 142 0 -7 38 c-3 20 -6 88 -6 150 l0 112 -302 -2 c-167 -1 -349 -4
-405 -5z"/>
<path d="M1076 2538 c-4 -183 -6 -540 -4 -793 l3 -460 335 0 c184 0 341 4 348
9 13 9 17 179 6 248 l-7 38 -192 -6 -192 -6 -6 93 c-4 50 -7 343 -7 651 l0
558 -139 0 -139 0 -6 -332z"/>
<path d="M7080 2080 l0 -791 139 3 140 3 3 788 3 787 -142 0 -143 0 0 -790z"/>
<path d="M8420 2698 c0 -95 -1 -252 -2 -348 -1 -96 -1 -374 0 -617 l2 -443
145 0 145 0 0 330 0 330 125 0 125 0 0 -330 0 -331 148 3 147 3 3 788 2 787
-150 0 -150 0 0 -305 0 -305 -125 0 -125 0 0 305 0 305 -145 0 -145 0 0 -172z"/>
</g>
</svg>
