<?xml version="1.0" encoding="UTF-8"?>
<svg version="1.1" xmlns="http://www.w3.org/2000/svg" width="512" height="512">
<path d="M0 0 C2.48763123 0.01077639 4.97454786 0.0000053 7.4621582 -0.01269531 C16.29066681 -0.02043067 24.61350075 0.48285632 33.29223633 2.26074219 C34.7336521 2.49413063 36.17629949 2.72010951 37.62036133 2.93652344 C58.85726229 6.384347 78.33868399 14.2268052 97.29223633 24.26074219 C98.86811523 25.0921875 98.86811523 25.0921875 100.47583008 25.94042969 C131.16035308 42.97380368 156.72486321 72.82839128 166.64257812 106.65991211 C172.39973586 127.49255842 173.10715247 152.54813613 166.29223633 173.26074219 C166.0726123 173.94088379 165.85298828 174.62102539 165.62670898 175.32177734 C158.65948551 196.36151023 147.55910126 213.42759888 132.29223633 229.26074219 C131.5884082 230.02773438 130.88458008 230.79472656 130.15942383 231.58496094 C119.59958607 242.76714655 106.64552533 251.20770244 93.09838867 258.31298828 C91.46292723 259.17117446 89.83968141 260.0525415 88.21801758 260.93652344 C54.16941537 278.91307058 12.50448599 284.44137248 -25.33666992 278.72167969 C-42.82730364 276.3301446 -56.67376958 280.21651487 -71.76123047 288.53759766 C-82.96831266 294.69971687 -95.68045396 299.94639007 -108.70776367 299.26074219 C-107.92401367 298.35324219 -107.14026367 297.44574219 -106.33276367 296.51074219 C-105.79006836 295.87265625 -105.24737305 295.23457031 -104.68823242 294.57714844 C-103.22471808 292.86538511 -101.74576458 291.16679426 -100.25854492 289.47558594 C-92.01972367 279.93136102 -86.97775326 272.17115329 -86.70776367 259.26074219 C-87.39225586 259.009375 -88.07674805 258.75800781 -88.78198242 258.49902344 C-119.0921322 245.67082921 -144.79227422 217.04806903 -157.70776367 187.26074219 C-169.15799422 158.09164221 -170.71220577 125.57391476 -158.70776367 96.26074219 C-140.79097825 55.86742269 -107.84184731 28.72532201 -67.66870117 11.99511719 C-60.02337757 9.05603902 -52.21809317 7.01810049 -44.27026367 5.07324219 C-43.25867188 4.82316406 -42.24708008 4.57308594 -41.20483398 4.31542969 C-27.44136117 1.06040576 -14.0838792 -0.07246084 0 0 Z " fill="#FEFEFE" transform="translate(253.707763671875,109.7392578125)"/>
</svg>
