<?xml version="1.0" encoding="UTF-8"?>
<svg version="1.1" xmlns="http://www.w3.org/2000/svg" width="945" height="491">
<path d="M0 0 C311.85 0 623.7 0 945 0 C945 162.03 945 324.06 945 491 C633.15 491 321.3 491 0 491 C0 328.97 0 166.94 0 0 Z " fill="#FEFEFE" transform="translate(0,0)"/>
<path d="M0 0 C0.89235352 0.52247314 1.78470703 1.04494629 2.70410156 1.58325195 C3.72366943 2.17614014 4.7432373 2.76902832 5.79370117 3.37988281 C6.88303955 4.02062744 7.97237793 4.66137207 9.09472656 5.3215332 C10.25267848 5.997315 11.41096959 6.6725159 12.56958008 7.34716797 C14.97325824 8.74729735 17.37546375 10.14990832 19.77685547 11.55395508 C24.20125247 14.13746149 28.64535388 16.68643236 33.08862305 19.23730469 C43.11836949 24.99783409 53.0941017 30.84189802 63.03222656 36.7590332 C72.24314493 42.24194245 81.51224158 47.5999154 90.85986328 52.84594727 C98.6734447 57.23626841 106.4195612 61.73552092 114.15405273 66.26342773 C121.53433642 70.58275054 128.93422504 74.86677944 136.34472656 79.1340332 C147.67702107 85.66246604 158.98005759 92.23981008 170.27148438 98.83862305 C175.79418731 102.06502576 181.31965428 105.28669018 186.84472656 108.5090332 C188.87598785 109.69390969 190.90723894 110.87880365 192.93847656 112.0637207 C194.21754883 112.80984619 194.21754883 112.80984619 195.52246094 113.57104492 C196.12380859 113.92183105 196.72515625 114.27261719 197.34472656 114.6340332 C194.23876398 117.91166437 190.74368956 120.05199338 186.90722656 122.3840332 C186.23884766 122.80813477 185.57046875 123.23223633 184.88183594 123.66918945 C179.8984862 126.70167383 179.8984862 126.70167383 177.40795898 126.39746094 C175.04141501 125.52180326 172.95982537 124.43511309 170.76660156 123.18481445 C169.86594971 122.67394287 168.96529785 122.16307129 168.03735352 121.63671875 C167.06628662 121.07895752 166.09521973 120.52119629 165.09472656 119.9465332 C164.07403076 119.36492432 163.05333496 118.78331543 162.00170898 118.18408203 C153.86258484 113.53466572 145.76576572 108.81316338 137.67724609 104.07641602 C129.96949426 99.56691687 122.22724782 95.11966139 114.46972656 90.6965332 C96.05113177 80.19219567 77.68600819 69.59763471 59.37841797 58.90087891 C47.72786809 52.09788203 36.03516146 45.36817028 24.34472656 38.6340332 C20.14841346 36.21619658 15.95252372 33.79762659 11.75701904 31.37838745 C10.07374434 30.40796848 8.39014769 29.43810802 6.70654297 28.46826172 C5.68351074 27.87843506 4.66047852 27.2886084 3.60644531 26.6809082 C2.26005981 25.90505371 2.26005981 25.90505371 0.88647461 25.11352539 C-1.65527344 23.6340332 -1.65527344 23.6340332 -4.10913086 21.81860352 C-6.65514567 20.32568834 -6.65514567 20.32568834 -9.62353516 21.25073242 C-12.60020463 22.60890679 -15.36458929 24.07228478 -18.16308594 25.7668457 C-19.21761963 26.39985596 -20.27215332 27.03286621 -21.35864258 27.68505859 C-21.91488312 28.02231964 -22.47112366 28.35958069 -23.04421997 28.70706177 C-26.05371988 30.53068529 -29.0755849 32.33361188 -32.09667969 34.13793945 C-32.72160812 34.51166183 -33.34653656 34.88538422 -33.99040222 35.27043152 C-40.51729125 39.16519675 -47.1107853 42.93975906 -53.71777344 46.6965332 C-54.88886559 47.36314549 -56.05992674 48.02981226 -57.23095703 48.6965332 C-58.98089017 49.69277022 -60.73085231 50.68895561 -62.48101807 51.68478394 C-77.92142146 60.47431679 -93.28139377 69.40422483 -108.62158203 78.3671875 C-119.17437338 84.52918048 -129.76204163 90.63030249 -140.35107422 96.72973633 C-143.68141596 98.64909982 -147.01036491 100.57085674 -150.33886719 102.4934082 C-151.44955566 103.13479736 -152.56024414 103.77618652 -153.70458984 104.43701172 C-155.76564321 105.62729086 -157.82653693 106.81784651 -159.88720703 108.00878906 C-166.77452049 111.98478749 -173.67632216 115.93502141 -180.58178711 119.87939453 C-181.55259972 120.43402626 -182.52341232 120.98865799 -183.52364349 121.56009674 C-185.9008018 122.91816605 -188.27801308 124.27614253 -190.65527344 125.6340332 C-191.16993039 152.38062013 -191.55749608 179.12646203 -191.79514122 205.87700844 C-191.90843602 218.29900554 -192.06278231 230.71792107 -192.31494141 243.13793945 C-192.5347074 253.96763837 -192.67626127 264.79510578 -192.72522032 275.62697256 C-192.75383201 281.36021217 -192.82067805 287.08707047 -192.98133469 292.81825638 C-194.72287474 315.1793767 -194.72287474 315.1793767 -188.49938774 335.89569473 C-183.44684056 340.81021968 -177.86698534 343.53736646 -171.22772694 345.73116589 C-167.70542426 346.96740668 -164.99188755 348.75007649 -161.92480469 350.8605957 C-160.10631661 351.99424652 -158.28732253 353.12708614 -156.46777344 354.2590332 C-146.93616161 360.2032381 -137.42831415 366.18362248 -127.93652344 372.19116211 C-125.63553511 373.64651753 -123.33314238 375.09962438 -121.03027344 376.55200195 C-111.61946081 382.48796223 -102.22487008 388.44882174 -92.84082031 394.42700195 C-87.01720845 398.13553015 -81.18389641 401.82816284 -75.34277344 405.5090332 C-61.46626221 414.25919939 -47.64717238 423.10181587 -33.87158203 432.01000977 C-32.5359977 432.87339834 -31.19911452 433.73478157 -29.86083984 434.59399414 C-25.98066872 437.09321646 -22.15234682 439.65534017 -18.34667969 442.2668457 C-17.44216064 442.87826416 -16.5376416 443.48968262 -15.60571289 444.11962891 C-13.8401012 445.31410249 -12.0841854 446.52306842 -10.33959961 447.74804688 C-9.54142822 448.28405518 -8.74325684 448.82006348 -7.92089844 449.37231445 C-7.21739258 449.85740479 -6.51388672 450.34249512 -5.7890625 450.84228516 C-3.63261418 451.87759275 -3.63261418 451.87759275 -1.25415039 450.98266602 C1.6095339 449.49661698 4.41000347 447.95182839 7.19238281 446.31762695 C7.75243515 445.98960587 8.31248749 445.66158478 8.88951111 445.32362366 C10.73097049 444.2433229 12.56918522 443.15763778 14.40722656 442.0715332 C15.70861636 441.30583597 17.01004938 440.5402122 18.31152344 439.7746582 C27.61740688 434.29047525 36.85923068 428.70445419 46.07815552 423.07565308 C54.94446325 417.66369849 63.87076955 412.36537482 72.84472656 407.1340332 C82.91900877 401.26024525 92.92303338 395.2841657 102.87728882 389.20932007 C113.65455711 382.63380869 124.49659726 376.1718615 135.36938477 369.75561523 C135.94115356 369.41533543 136.51292235 369.07505562 137.10201746 368.7244643 C138.37549201 367.97577214 139.65680902 367.24017972 140.94734234 366.5212909 C144.76042587 364.35465063 148.05137868 362.0839076 151.31278324 359.14637566 C170.55818211 343.16520201 196.07496416 346.74242186 219.5974232 347.0091145 C225.64736113 347.06374373 231.69695772 347.05163166 237.74704476 347.04156871 C250.10497485 347.02327338 262.46184843 347.06956996 274.81947136 347.15381241 C287.0394307 347.23690122 299.25894913 347.29058551 311.47918892 347.3057518 C312.62263302 347.30719533 312.62263302 347.30719533 313.78917699 347.30866803 C317.6611353 347.31340527 321.53309398 347.31762443 325.40505309 347.32164429 C352.7678113 347.35098172 380.12999604 347.44511201 407.49243164 347.57788086 C434.06010915 347.70664375 460.62762922 347.80572513 487.19555664 347.86499023 C488.01575635 347.8668316 488.83595605 347.86867297 489.68101029 347.87057013 C497.91845124 347.8890308 506.1558934 347.90689199 514.3933366 347.92431416 C531.1711327 347.95981279 547.94891859 347.9993103 564.72669983 348.04122925 C565.49796656 348.04315131 566.26923328 348.04507337 567.06387173 348.04705367 C618.49106875 348.17567248 669.91792124 348.39856508 721.34472656 348.6340332 C721.34472656 355.5640332 721.34472656 362.4940332 721.34472656 369.6340332 C718.5416825 369.62628183 715.73863844 369.61853046 712.85065365 369.6105442 C663.76207227 369.47640532 614.67349444 369.36029885 565.58473206 369.32723999 C564.8153712 369.32671693 564.04601033 369.32619387 563.25333551 369.32565496 C546.53000641 369.31438952 529.80667715 369.30624132 513.08334502 369.30130086 C504.88132808 369.29885884 496.67931147 369.29572853 488.47729492 369.29223633 C487.25304542 369.29173265 487.25304542 369.29173265 486.0040636 369.2912188 C459.58568257 369.28002762 433.16763751 369.2234534 406.74938371 369.14315346 C379.58398859 369.06082364 352.41890914 369.0246602 325.25338832 369.04595944 C321.40980676 369.04895165 317.56622502 369.05142025 313.7226429 369.05356979 C312.96622716 369.05400902 312.20981143 369.05444825 311.43047401 369.05490079 C299.29112829 369.06060667 287.15241373 369.01815224 275.013239 368.95734207 C262.78665658 368.89713437 250.56087557 368.88848628 238.33421265 368.93118371 C231.71829571 368.95288942 225.10399447 368.9509094 218.48817825 368.88778114 C182.90105733 367.34964945 182.90105733 367.34964945 152.29461586 382.95979762 C149.24450708 385.57871586 145.83675542 387.4827401 142.34472656 389.4465332 C141.15922674 390.1516718 139.97534846 390.85955226 138.79394531 391.5715332 C138.22466309 391.9118457 137.65538086 392.2521582 137.06884766 392.6027832 C134.09633047 394.38073741 131.12694644 396.16391198 128.15722656 397.9465332 C124.08580769 400.39044964 120.0134058 402.83269208 115.93847656 405.27075195 C108.56500161 409.68531682 101.19779934 414.10896171 93.86035156 418.58325195 C80.52627034 426.71370192 67.13501926 434.7294351 53.64868164 442.60498047 C46.77498816 446.61948567 39.91732626 450.65807042 33.09472656 454.7590332 C32.32765381 455.21793945 31.56058105 455.6768457 30.77026367 456.1496582 C26.6459364 458.62314115 22.54271964 461.12666512 18.46066284 463.66943359 C16.74498107 464.73594424 15.02551713 465.79606679 13.3046875 466.85424805 C11.08042434 468.22403356 8.86328032 469.60546354 6.65429688 470.99975586 C5.64592773 471.6177002 4.63755859 472.23564453 3.59863281 472.87231445 C2.70474854 473.42959229 1.81086426 473.98687012 0.88989258 474.56103516 C-2.1707723 475.85135862 -3.53903852 475.67062801 -6.65527344 474.6340332 C-8.88515611 473.29959233 -10.97421269 471.93842432 -13.09277344 470.4465332 C-14.42972496 469.53014646 -15.76837267 468.61623111 -17.10839844 467.7043457 C-17.83478516 467.20966797 -18.56117188 466.71499023 -19.30957031 466.20532227 C-23.60212889 463.32991563 -27.97600809 460.58236465 -32.34277344 457.8215332 C-39.41209897 453.34219442 -46.45846593 448.83173816 -53.46777344 444.2590332 C-70.67237037 433.04239528 -87.99853312 422.01460658 -105.37695312 411.06958008 C-109.30518982 408.59443737 -113.22999027 406.11385601 -117.15527344 403.6340332 C-118.74511322 402.63012067 -120.33495696 401.62621441 -121.92480469 400.62231445 C-125.02734379 398.66291669 -128.12884626 396.70189405 -131.22949219 394.73950195 C-140.02133418 389.17731621 -148.8303048 383.64352858 -157.65527344 378.1340332 C-167.21970681 372.16288434 -176.76317467 366.15973831 -186.29052734 360.12963867 C-188.84193714 358.51597602 -191.39492364 356.90483004 -193.94824219 355.29418945 C-194.81924561 354.744646 -195.69024902 354.19510254 -196.58764648 353.62890625 C-198.25953263 352.57414115 -199.93156302 351.51960464 -201.60375977 350.46533203 C-202.72754028 349.75606567 -202.72754028 349.75606567 -203.87402344 349.0324707 C-204.53337891 348.61658691 -205.19273437 348.20070313 -205.87207031 347.7722168 C-207.47947155 346.7462441 -209.06861686 345.69180426 -210.65527344 344.6340332 C-210.9780371 341.58407787 -211.10307141 338.73314336 -211.10351562 335.67770386 C-211.11525126 334.73833894 -211.12698689 333.79897402 -211.13907814 332.8311435 C-211.17463626 329.66367631 -211.18842374 326.49648924 -211.20214844 323.32885742 C-211.22257164 321.06569912 -211.24413362 318.80255085 -211.26675415 316.53941345 C-211.33515047 309.08926293 -211.37109787 301.63909378 -211.40527344 294.1887207 C-211.41872509 291.62639407 -211.43233637 289.06406826 -211.44610596 286.50174332 C-211.50148857 275.84395241 -211.54964515 265.18619105 -211.57522583 254.52828789 C-211.58197532 251.76177832 -211.58877764 248.9952689 -211.59570312 246.22875977 C-211.59741666 245.54115724 -211.59913019 244.85355471 -211.60089564 244.14511575 C-211.63013689 233.01151737 -211.71400675 221.87903388 -211.82066631 210.74593531 C-211.92928808 199.3145378 -211.98775136 187.8839767 -212.00043488 176.45201313 C-212.00879646 170.03357628 -212.03880937 163.6169479 -212.12145996 157.19900131 C-212.19804154 151.15881639 -212.21291232 145.12159474 -212.18055344 139.08104134 C-212.17934044 136.86541626 -212.20034996 134.64964966 -212.24531937 132.43448067 C-212.55775361 116.14064122 -212.55775361 116.14064122 -209.40553284 111.98744059 C-205.92939263 108.88902932 -201.97749373 107.31037025 -197.65527344 105.6340332 C-195.59214925 104.49901895 -193.54239999 103.33890978 -191.51464844 102.1418457 C-189.47944417 101.01197966 -187.44296087 99.88441476 -185.40527344 98.7590332 C-177.62850866 94.43375714 -169.8909982 90.06240869 -162.23803711 85.52197266 C-155.92635621 81.78063235 -149.57512956 78.10965031 -143.21777344 74.4465332 C-141.55911255 73.49061279 -141.55911255 73.49061279 -139.86694336 72.51538086 C-136.46334814 70.5544194 -133.05935454 68.59415106 -129.65527344 66.6340332 C-115.9809054 58.75865852 -102.31790031 50.86547277 -88.69384766 42.90332031 C-80.27326839 37.98567439 -71.82731446 33.11276213 -63.37719727 28.24609375 C-57.02615452 24.58592128 -50.68548788 20.90884968 -44.35791016 17.20825195 C-42.36764566 16.04535733 -40.37581194 14.88514372 -38.38232422 13.7277832 C-33.45961055 10.86927435 -28.56212161 7.97841922 -23.69824219 5.02075195 C-21.80896023 3.89177716 -19.919639 2.76286808 -18.03027344 1.6340332 C-17.17135498 1.09883057 -16.31243652 0.56362793 -15.42749023 0.01220703 C-14.62351807 -0.46321533 -13.8195459 -0.9386377 -12.99121094 -1.4284668 C-12.29560059 -1.85256836 -11.59999023 -2.27666992 -10.88330078 -2.71362305 C-6.82078084 -3.90308758 -3.59970048 -1.85181355 0 0 Z " fill="#010101" transform="translate(217.6552734375,9.365966796875)"/>
<path d="M0 0 C3.31844716 1.28654641 5.75277293 3.74824212 8.375 6.08789062 C9.63394187 7.18965051 10.89306133 8.2912075 12.15234375 9.39257812 C12.79284668 9.95686523 13.43334961 10.52115234 14.09326172 11.10253906 C17.01712253 13.6677496 19.9783583 16.18857018 22.9375 18.71289062 C28.44179287 23.42544898 33.91959905 28.16806459 39.39208984 32.91748047 C45.32888478 38.06700811 51.29453455 43.18239297 57.26611328 48.29150391 C59.59518445 50.28475856 61.92266193 52.27986876 64.25 54.27514648 C65.41001884 55.26961018 66.57017353 56.26391543 67.73046875 57.25805664 C70.76132695 59.85502087 73.79023767 62.45421255 76.81640625 65.05664062 C77.75709961 65.86488281 77.75709961 65.86488281 78.71679688 66.68945312 C79.91009659 67.71480695 81.10284338 68.74080477 82.29492188 69.76757812 C85.48010623 72.50313384 88.70396676 75.17293607 92 77.77539062 C90.54163185 81.62017937 88.63541701 82.95768212 85 84.77539062 C81.48557972 85.91816426 78.11675581 85.94196198 74.4375 85.96289062 C73.30183594 85.97707031 72.16617188 85.99125 70.99609375 86.00585938 C68 85.77539062 68 85.77539062 65 83.77539062 C64.67 102.25539063 64.34 120.73539063 64 139.77539062 C67.63 139.77539062 71.26 139.77539062 75 139.77539062 C77.6875 141.15039062 77.6875 141.15039062 79 143.77539062 C80.15576123 152.18217767 80.15576123 152.18217767 77.82121277 155.40034485 C75.29161037 157.31023652 73.57775032 157.13683268 70.42700195 157.1159668 C68.71556755 157.11562691 68.71556755 157.11562691 66.96955872 157.11528015 C65.73823715 157.0997963 64.50691559 157.08431244 63.23828125 157.06835938 C61.34688667 157.06199211 61.34688667 157.06199211 59.4172821 157.05549622 C56.06825057 157.0415369 52.71983242 157.01459167 49.37097168 156.98138428 C45.95244647 156.95067168 42.53385785 156.93698838 39.11523438 156.921875 C32.40998651 156.88876286 25.70502867 156.8385308 19 156.77539062 C19.05220703 158.33 19.05220703 158.33 19.10546875 159.91601562 C19.13361482 161.28579104 19.16091411 162.65558404 19.1875 164.02539062 C19.21263672 164.70730469 19.23777344 165.38921875 19.26367188 166.09179688 C19.30996034 169.27027167 19.19121369 171.4321394 17.62963867 174.23535156 C16 175.77539062 16 175.77539062 13.73828125 176.16601562 C12.93777344 176.11960937 12.13726562 176.07320312 11.3125 176.02539062 C10.50425781 175.98929688 9.69601563 175.95320312 8.86328125 175.91601562 C8.24839844 175.86960937 7.63351563 175.82320312 7 175.77539062 C7.12375 176.66226563 7.2475 177.54914063 7.375 178.46289062 C7 181.77539062 7 181.77539062 4.375 184.65039062 C0.71484489 186.95493273 -0.78444004 187.41688888 -5 186.77539062 C-8.34265205 185.56832183 -8.94704566 184.85482213 -11 181.77539062 C-11.22705078 179.13989258 -11.22705078 179.13989258 -11.1953125 176.01367188 C-11.18886719 174.89541016 -11.18242187 173.77714844 -11.17578125 172.625 C-11.15064453 170.87413086 -11.15064453 170.87413086 -11.125 169.08789062 C-11.11597656 167.90904297 -11.10695313 166.73019531 -11.09765625 165.515625 C-11.07406423 162.60201036 -11.0411454 159.68880171 -11 156.77539062 C-11.82019119 156.78427307 -12.64038239 156.79315552 -13.48542786 156.80230713 C-21.2104359 156.8824155 -28.93524292 156.94333552 -36.66055775 156.98263931 C-40.63236504 157.00352512 -44.60382949 157.03186003 -48.57543945 157.07714844 C-52.4074459 157.12057208 -56.23912235 157.14452025 -60.07135582 157.1548996 C-61.53424972 157.16229735 -62.99712531 157.17674352 -64.45987892 157.19831085 C-66.50726132 157.22730082 -68.55327586 157.23134881 -70.60083008 157.22949219 C-71.76665115 157.23837463 -72.93247223 157.24725708 -74.13362122 157.25640869 C-77 156.77539062 -77 156.77539062 -78.87504578 154.90155029 C-80.2301292 152.34044722 -80.40113369 150.60066282 -80.375 147.71289062 C-80.38273438 146.85566406 -80.39046875 145.9984375 -80.3984375 145.11523438 C-80 142.77539062 -80 142.77539062 -77 139.77539062 C-72.71 139.77539062 -68.42 139.77539062 -64 139.77539062 C-64.33 121.29539062 -64.66 102.81539062 -65 83.77539062 C-67.475 84.76539063 -67.475 84.76539063 -70 85.77539062 C-77.34416825 86.66872735 -83.38364497 86.53180653 -89.51171875 82.16210938 C-91 80.77539062 -91 80.77539062 -93 77.77539062 C-92.33355469 77.24171875 -91.66710937 76.70804687 -90.98046875 76.15820312 C-86.02291059 72.15055471 -81.19061256 68.09373235 -76.5 63.77539062 C-72.12695905 59.75441653 -67.61900842 55.97349544 -63 52.24023438 C-57.5510382 47.7632879 -52.25914772 43.10332843 -46.94384766 38.46923828 C-43.77957304 35.71192387 -40.60888105 32.96202565 -37.4375 30.21289062 C-36.81721924 29.67510986 -36.19693848 29.1373291 -35.55786133 28.58325195 C-30.79373015 24.45591366 -26.02249133 20.33673477 -21.22094727 16.25292969 C-18.161387 13.64797492 -15.13827945 11.0114857 -12.15234375 8.32226562 C-11.20403687 7.4793396 -11.20403687 7.4793396 -10.23657227 6.61938477 C-9.02088123 5.53761904 -7.81385822 4.44601055 -6.61694336 3.34350586 C-2.51202481 -0.28211216 -2.51202481 -0.28211216 0 0 Z " fill="#070707" transform="translate(211,146.224609375)"/>
<path d="M0 0 C5.05846475 2.06683967 9.61055164 4.84072816 14.296875 7.63671875 C16.45793133 8.91213973 18.619404 10.18685548 20.78125 11.4609375 C21.89693359 12.12013184 23.01261719 12.77932617 24.16210938 13.45849609 C29.60279525 16.65839169 35.07508974 19.80290106 40.546875 22.94921875 C48.89525451 27.75704629 57.22931149 32.5882783 65.546875 37.44921875 C77.08673035 44.19204383 88.66123112 50.87384452 100.24267578 57.54492188 C103.57301752 59.46428537 106.90196648 61.38604228 110.23046875 63.30859375 C123.85838376 71.17960987 123.85838376 71.17960987 137.51342773 79.00341797 C139.1867523 79.95835948 140.85945386 80.9143936 142.53149414 81.87158203 C146.93492153 84.3920738 151.3443996 86.90092459 155.76538086 89.39053345 C158.18515498 90.75547313 160.60059583 92.12796607 163.01538086 93.50170898 C164.76770284 94.49517973 166.52541652 95.47912098 168.28320312 96.46289062 C169.34474609 97.06810547 170.40628906 97.67332031 171.5 98.296875 C172.45036133 98.83320557 173.40072266 99.36953613 174.37988281 99.92211914 C176.546875 101.44921875 176.546875 101.44921875 177.546875 104.44921875 C175.2109375 106.3125 175.2109375 106.3125 171.546875 107.44921875 C167.67694271 106.08757591 164.3647793 103.83972745 160.921875 101.63671875 C158.7642025 100.31577622 156.6052977 98.99684494 154.4453125 97.6796875 C153.8847113 97.33332245 153.32411011 96.9869574 152.746521 96.63009644 C147.01735168 93.09223325 141.17552316 89.76478394 135.31518555 86.45031738 C132.34913772 84.77114037 129.38923144 83.08123169 126.4296875 81.390625 C125.8489447 81.05896332 125.2682019 80.72730164 124.66986084 80.3855896 C117.91574397 76.52357159 111.1995898 72.59708379 104.484375 68.66796875 C97.18787365 64.4003864 89.87187493 60.16767996 82.546875 55.94921875 C74.093264 51.08063378 65.65568835 46.18595372 57.234375 41.26171875 C49.02300493 36.46106099 40.79218891 31.69762876 32.51220703 27.01611328 C27.66627508 24.2677156 22.87378519 21.44890976 18.11328125 18.5546875 C17.03046875 17.90306641 15.94765625 17.25144531 14.83203125 16.58007812 C12.72596971 15.3100592 10.62787212 14.02671346 8.5390625 12.72851562 C7.10626953 11.8690332 7.10626953 11.8690332 5.64453125 10.9921875 C4.38394897 10.21911255 4.38394897 10.21911255 3.09790039 9.43041992 C-0.22791013 8.15121306 -2.04060335 8.50100494 -5.453125 9.44921875 C-8.19361653 10.69241644 -8.19361653 10.69241644 -10.8828125 12.3359375 C-11.91293457 12.93736572 -12.94305664 13.53879395 -14.00439453 14.15844727 C-15.64964111 15.13769165 -15.64964111 15.13769165 -17.328125 16.13671875 C-18.48889841 16.81851672 -19.65020308 17.49941095 -20.81201172 18.17944336 C-23.19975792 19.57877226 -25.58448494 20.98304152 -27.96679688 22.39160156 C-32.17747423 24.87983473 -36.40513504 27.33864154 -40.6328125 29.79785156 C-45.57690863 32.67480405 -50.51460394 35.56271024 -55.453125 38.44921875 C-59.41097974 40.76253913 -63.36925531 43.07513568 -67.328125 45.38671875 C-68.80671997 46.25031006 -68.80671997 46.25031006 -70.31518555 47.13134766 C-76.56930898 50.77979776 -82.8392501 54.399659 -89.11767578 58.00610352 C-99.82849018 64.16046748 -110.46140756 70.42595123 -121.03637695 76.81079102 C-129.68023358 82.01700569 -138.40281713 87.07861837 -147.16210938 92.08789062 C-149.1253349 93.2124567 -151.07830627 94.35518244 -153.01875973 95.51860142 C-155.46243852 96.89230755 -157.72854091 98.02505421 -160.28392124 99.11395931 C-167.49461071 102.34789986 -167.49461071 102.34789986 -172.31393313 108.30610204 C-173.70814022 113.84316124 -173.3945146 119.52441457 -173.24780273 125.18774414 C-173.25343962 127.09055521 -173.26567902 128.9933564 -173.28399658 130.89608765 C-173.31494855 136.04389064 -173.25389877 141.1869277 -173.17596316 146.33407903 C-173.11018298 151.71926083 -173.12948913 157.10413135 -173.1396637 162.48960876 C-173.14604031 172.67932764 -173.07620394 182.86703333 -172.9787932 193.05623096 C-172.87158778 204.65957012 -172.84963112 216.26258457 -172.8347367 227.8663522 C-172.80220321 251.72815069 -172.66293285 275.58836689 -172.453125 299.44921875 C-171.66794998 299.75672562 -170.88277496 300.06423248 -170.07380676 300.38105774 C-167.72717041 301.33752086 -165.77594307 302.37664022 -163.65234375 303.7421875 C-162.93522217 304.19964355 -162.21810059 304.65709961 -161.47924805 305.12841797 C-160.70750244 305.62615723 -159.93575684 306.12389648 -159.140625 306.63671875 C-157.43271663 307.72722835 -155.72436201 308.81703928 -154.015625 309.90625 C-153.11199219 310.4832666 -152.20835937 311.0602832 -151.27734375 311.65478516 C-146.41787457 314.74236282 -141.52746107 317.78021931 -136.640625 320.82421875 C-126.95346449 326.8678687 -117.30998539 332.97733586 -107.68359375 339.1171875 C-102.7825687 342.24241352 -97.86995226 345.34893042 -92.953125 348.44921875 C-85.17369926 353.3555099 -77.41222495 358.28957229 -69.65551758 363.23168945 C-63.66067093 367.04956286 -57.65419746 370.84842757 -51.640625 374.63671875 C-45.84665737 378.28915186 -40.07363218 381.97101681 -34.328125 385.69921875 C-27.50952386 390.12303449 -20.68086186 394.53099149 -13.84014893 398.92053223 C-12.16905697 399.99346389 -10.49931129 401.06849145 -8.82958984 402.14355469 C-7.80172363 402.80258789 -6.77385742 403.46162109 -5.71484375 404.140625 C-4.79662842 404.73045166 -3.87841309 405.32027832 -2.93237305 405.92797852 C-2.11422119 406.42998779 -1.29606934 406.93199707 -0.453125 407.44921875 C0.19462891 407.90925293 0.84238281 408.36928711 1.50976562 408.84326172 C3.6866664 409.720888 3.6866664 409.720888 6.26635742 408.35375977 C7.30123291 407.72655029 8.3361084 407.09934082 9.40234375 406.453125 C9.9720137 406.11397568 10.54168365 405.77482635 11.12861633 405.42539978 C13.00662769 404.30241403 14.8700624 403.15727733 16.734375 402.01171875 C18.04727772 401.22116072 19.36109222 400.43211508 20.67578125 399.64453125 C24.01535986 397.6394991 27.34404321 395.61710204 30.67034912 393.59014893 C34.45139366 391.29126893 38.25014621 389.02186685 42.04614258 386.74780273 C44.06157074 385.53979205 46.0757144 384.32963595 48.08862305 383.11743164 C56.03885151 378.33243785 64.03543485 373.63059054 72.046875 368.94921875 C82.0244965 363.11796446 91.9634716 357.22812756 101.86303711 351.26489258 C107.7815298 347.7019534 113.71149674 344.15951271 119.65625 340.640625 C120.35164886 340.22897598 121.04704773 339.81732697 121.76351929 339.39320374 C123.17484273 338.55781617 124.58616883 337.72243308 125.99749756 336.88705444 C136.03257492 330.94579329 146.05654955 325.00226142 155.90234375 318.75 C156.737997 318.24465768 156.737997 318.24465768 157.59053212 317.72910643 C159.67462865 316.41206446 159.67462865 316.41206446 161.95083588 314.50835466 C172.41551903 306.80057825 182.57598165 307.34466503 195.18013 307.48718262 C197.48062164 307.4836906 199.78111015 307.47667968 202.08158177 307.46646929 C208.38049476 307.4486325 214.6783137 307.48050829 220.97708738 307.52069378 C227.07876617 307.55174837 233.1803001 307.5450035 239.28203527 307.53923904 C251.75653751 307.52875081 264.23069962 307.55537102 276.70510292 307.6033783 C289.05051675 307.65076704 301.39578883 307.68151639 313.74129295 307.69020081 C314.89408622 307.69102568 314.89408622 307.69102568 316.07016825 307.69186722 C319.97337659 307.69457401 323.87658505 307.69698503 327.77979364 307.69928223 C355.40301539 307.7160711 383.02605226 307.7699295 410.64916992 307.84570312 C437.47923807 307.9192162 464.30925557 307.97586661 491.1394043 308.00976562 C491.96689549 308.01081783 492.79438668 308.01187004 493.64695336 308.01295414 C501.95720489 308.02350259 510.26745681 308.03370906 518.57770906 308.04366501 C535.50560004 308.06395296 552.43348772 308.08652297 569.3613739 308.11047363 C570.52876628 308.11212111 570.52876628 308.11212111 571.71974233 308.11380187 C623.66219777 308.18736705 675.60454706 308.31429071 727.546875 308.44921875 C727.546875 311.08921875 727.546875 313.72921875 727.546875 316.44921875 C726.3856397 316.44487947 725.2244044 316.4405402 724.02798015 316.43606943 C672.7937287 316.24574169 621.55945838 316.07680149 570.32487488 316.01539612 C569.54788393 316.01445889 568.77089299 316.01352165 567.97035687 316.01255602 C551.07983823 315.99230873 534.18931788 315.97585079 517.29879181 315.96329042 C509.01437947 315.95710681 500.72996793 315.9500868 492.44555664 315.94262695 C491.6212058 315.94189889 490.79685496 315.94117083 489.94752379 315.94042071 C463.27998087 315.91647673 436.61295141 315.8374192 409.94562738 315.72944735 C382.51655257 315.61868483 355.08791784 315.56418967 327.6586101 315.57940002 C323.77478915 315.58152776 319.8909682 315.58301951 316.00714684 315.58412361 C315.24283674 315.58436057 314.47852664 315.58459753 313.69105563 315.58484167 C301.44117212 315.58701 289.19223709 315.53074777 276.94263558 315.45203152 C264.59488061 315.3739534 252.24827253 315.35886608 239.90035061 315.40586513 C233.22231848 315.42959046 226.54766601 315.42488647 219.86981201 315.34535027 C181.0953453 314.80503572 181.0953453 314.80503572 147.51773393 332.20620453 C142.21480755 336.20994202 136.45844542 339.46157797 130.734375 342.82421875 C129.43567924 343.61102231 128.13854976 344.40043123 126.84448242 345.19482422 C118.12074562 350.51808827 109.34187369 355.74473307 100.546875 360.94921875 C90.50978119 366.88953038 80.5051284 372.87764762 70.546875 378.94921875 C59.02118537 385.97459054 47.43404041 392.89209289 35.81835938 399.76757812 C34.55467275 400.51560009 33.29100068 401.26364663 32.02734375 402.01171875 C31.10754227 402.55620667 31.10754227 402.55620667 30.16915894 403.11169434 C18.38050724 410.03769248 18.38050724 410.03769248 6.75952148 417.23583984 C4.546875 418.44921875 4.546875 418.44921875 2.28125 417.98828125 C-1.66364375 415.76786962 -5.43284533 413.32780073 -9.203125 410.82421875 C-10.99549675 409.64622655 -12.78849546 408.4691879 -14.58203125 407.29296875 C-16.00733154 406.35710937 -16.00733154 406.35710937 -17.46142578 405.40234375 C-22.66402801 402.00583503 -27.90329634 398.66683047 -33.140625 395.32421875 C-40.11536591 390.86978446 -47.07981794 386.40151244 -54.015625 381.88671875 C-61.80913229 376.81935125 -69.69908829 371.90953066 -77.59008789 366.99584961 C-83.41257255 363.36527235 -89.20590441 359.69771273 -94.953125 355.94921875 C-102.64674048 350.93319566 -110.43227863 346.0701716 -118.22729492 341.21362305 C-126.01006856 336.36113833 -133.75763561 331.45588259 -141.49023438 326.52392578 C-148.26508813 322.20292701 -155.05326544 317.90358454 -161.85083008 313.6184082 C-163.24577887 312.73876654 -164.6304429 311.84252384 -166.00240612 310.92744541 C-168.44140208 309.3681035 -168.44140208 309.3681035 -171.25072956 308.31954098 C-174.70535454 306.72072302 -176.89416693 305.29059952 -179.453125 302.44921875 C-181.11033803 296.05820532 -180.84533207 289.76622529 -180.7019043 283.20336914 C-180.69879998 281.22206801 -180.70054609 279.24075423 -180.70677185 277.25946045 C-180.70992567 271.88909939 -180.6453022 266.52144578 -180.56845832 261.15171361 C-180.49964963 255.53710906 -180.49322898 249.92244099 -180.48017883 244.30747986 C-180.44600173 233.67878306 -180.35575274 223.05133221 -180.24533445 212.42318386 C-180.12234269 200.32185619 -180.06189255 188.22046872 -180.00668466 176.11867154 C-179.89173451 151.22816341 -179.69827886 126.33876091 -179.453125 101.44921875 C-178.45972091 100.88839253 -178.45972091 100.88839253 -177.44624805 100.3162365 C-174.41880549 98.60683798 -171.39165147 96.89692913 -168.36450195 95.18701172 C-167.32265999 94.59885178 -166.28081802 94.01069183 -165.20740509 93.40470886 C-158.31997119 89.51365459 -151.45924919 85.58475674 -144.640625 81.57421875 C-133.03497358 74.77821157 -121.38917809 68.05330992 -109.73535156 61.34033203 C-104.30652558 58.21241727 -98.87993219 55.08063427 -93.453125 51.94921875 C-91.28646917 50.69919996 -89.1198025 49.44919997 -86.953125 48.19921875 C-85.880625 47.58046875 -84.808125 46.96171875 -83.703125 46.32421875 C-73.953125 40.69921875 -73.953125 40.69921875 -70.70263672 38.82397461 C-68.53755429 37.57486357 -66.37251518 36.32567746 -64.20751953 35.07641602 C-58.76696794 31.93719566 -53.32565284 28.79931312 -47.8828125 25.6640625 C-35.84720351 18.72910598 -23.82748889 11.76844224 -11.83935547 4.75170898 C-10.42614014 3.92521851 -10.42614014 3.92521851 -8.984375 3.08203125 C-8.15486328 2.59621582 -7.32535156 2.11040039 -6.47070312 1.60986328 C-2.64134029 -0.59303978 -2.64134029 -0.59303978 0 0 Z " fill="#030303" transform="translate(211.453125,36.55078125)"/>
<path d="M0 0 C3.09340867 0.46478121 4.86920913 1.45575767 7.1796875 3.51953125 C7.77144775 4.0410376 8.36320801 4.56254395 8.97290039 5.09985352 C9.60059326 5.66502686 10.22828613 6.2302002 10.875 6.8125 C12.22487789 8.00564125 13.57514708 9.19833993 14.92578125 10.390625 C15.60721191 10.99583984 16.28864258 11.60105469 16.99072266 12.22460938 C19.98585987 14.87110243 23.02234608 17.46799373 26.0625 20.0625 C27.22144616 21.05458005 28.38030029 22.0467676 29.5390625 23.0390625 C30.6926619 24.02609594 31.84630768 25.01307517 33 26 C34.15369232 26.98692483 35.3073381 27.97390406 36.4609375 28.9609375 C37.03497314 29.45190918 37.60900879 29.94288086 38.20043945 30.44873047 C39.35167195 31.43540872 40.50127175 32.42399538 41.64916992 33.41455078 C44.80738441 36.1381486 47.99147608 38.82242762 51.21484375 41.46875 C51.90908447 42.04761963 52.6033252 42.62648926 53.31860352 43.22290039 C54.66224475 44.34321291 56.015305 45.45234984 57.37866211 46.54858398 C61.90770533 50.35829083 61.90770533 50.35829083 62.4140625 53.87890625 C62.27742188 54.57886719 62.14078125 55.27882812 62 56 C61.11957031 56.01417969 60.23914063 56.02835938 59.33203125 56.04296875 C58.17058594 56.09066406 57.00914062 56.13835937 55.8125 56.1875 C54.08966797 56.23970703 54.08966797 56.23970703 52.33203125 56.29296875 C48.01726633 57.20852848 46.71440854 58.54769951 44 62 C43.50033405 64.92936236 43.29629759 67.26590055 43.3359375 70.1875 C43.33115387 70.96762451 43.32637024 71.74774902 43.32144165 72.55151367 C43.31804992 74.19549586 43.32720169 75.83954615 43.34814453 77.48339844 C43.37492608 79.99307295 43.348378 82.49827629 43.31640625 85.0078125 C43.31971048 86.60938482 43.32611701 88.21095438 43.3359375 89.8125 C43.32581635 90.55846436 43.31569519 91.30442871 43.30526733 92.07299805 C43.39357504 96.01880088 43.86694009 97.83076873 46.33325195 100.9675293 C49.64047898 103.48814314 51.69146632 103.68762019 55.8125 103.8125 C56.97394531 103.86019531 58.13539063 103.90789062 59.33203125 103.95703125 C60.65267578 103.97830078 60.65267578 103.97830078 62 104 C62 106.97 62 109.94 62 113 C44.51 113 27.02 113 9 113 C8.9175 107.67875 8.835 102.3575 8.75 96.875 C8.71358398 95.20679199 8.67716797 93.53858398 8.63964844 91.81982422 C8.62795413 90.48145836 8.61776406 89.14307816 8.609375 87.8046875 C8.58891113 87.122854 8.56844727 86.44102051 8.54736328 85.73852539 C8.54370771 80.67738994 9.90712459 77.93751024 13 74 C13.53882813 73.29875 14.07765625 72.5975 14.6328125 71.875 C15.37144531 70.946875 15.37144531 70.946875 16.125 70 C19.89251742 64.97664344 21.50005108 60.47677762 21.31640625 54.0859375 C20.54528771 49.00226715 18.18338436 45.12421514 14.5 41.625 C8.06314709 37.44104561 2.63414403 37.25429607 -5 38 C-11.2339531 39.92149868 -15.30596865 44.85394179 -18.3125 50.4375 C-20.22363872 57.56083524 -18.50663537 63.69930756 -15 70 C-14.51354004 70.40935791 -14.02708008 70.81871582 -13.52587891 71.24047852 C-10.13769904 74.21828877 -9.08976964 76.29059432 -8.51416016 80.83935547 C-8.33795186 85.5473402 -8.47914812 90.22872145 -8.625 94.9375 C-8.810625 103.3834375 -8.810625 103.3834375 -9 112 C-24.84 112 -40.68 112 -57 112 C-57 109.36 -57 106.72 -57 104 C-56.02417969 103.97421875 -55.04835937 103.9484375 -54.04296875 103.921875 C-52.77066406 103.86515625 -51.49835938 103.8084375 -50.1875 103.75 C-48.92292969 103.70359375 -47.65835938 103.6571875 -46.35546875 103.609375 C-43.05394526 103.31145309 -43.05394526 103.31145309 -41.31738281 101.49707031 C-39.41715517 97.89523037 -39.55177513 94.41475468 -39.56640625 90.4375 C-39.5611644 89.60919678 -39.55592255 88.78089355 -39.55052185 87.92749023 C-39.54410888 86.17921061 -39.54542928 84.43088779 -39.55395508 82.68261719 C-39.56247138 80.00898448 -39.53368587 77.33748453 -39.50195312 74.6640625 C-39.50034112 72.96354231 -39.50091864 71.26301833 -39.50390625 69.5625 C-39.49267227 68.76448975 -39.48143829 67.96647949 -39.46986389 67.14428711 C-39.51464245 63.57584734 -39.68882432 61.4280706 -41.81518555 58.50292969 C-44.93172487 56.35906824 -47.50469783 56.3887149 -51.25 56.25 C-53.14492187 56.16492188 -53.14492187 56.16492188 -55.078125 56.078125 C-56.04234375 56.05234375 -57.0065625 56.0265625 -58 56 C-58.3828125 53.3515625 -58.3828125 53.3515625 -58 50 C-55.99037407 47.81934207 -54.18909338 46.16897681 -51.875 44.375 C-50.57906115 43.31945954 -49.28349834 42.26345724 -47.98828125 41.20703125 C-46.98982178 40.40773193 -46.98982178 40.40773193 -45.97119141 39.59228516 C-42.94496052 37.14776226 -40.00606227 34.60539437 -37.0625 32.0625 C-35.89734281 31.06356013 -34.73197606 30.06486464 -33.56640625 29.06640625 C-29.24290116 25.35389608 -24.93964994 21.61811347 -20.63647461 17.88208008 C-15.54410461 13.46371004 -10.42897851 9.07236964 -5.30273438 4.69335938 C-2.58930781 2.41484224 -2.58930781 2.41484224 0 0 Z " fill="#FCFCFC" transform="translate(209,174)"/>
<path d="M0 0 C7.26 0 14.52 0 22 0 C22.40992188 1.85625 22.81984375 3.7125 23.2421875 5.625 C23.78640148 8.08334592 24.33067548 10.54167855 24.875 13 C25.14441406 14.22074219 25.41382813 15.44148437 25.69140625 16.69921875 C27.04833069 22.82192657 28.43612256 28.92668956 30 35 C30.31022095 33.56950317 30.31022095 33.56950317 30.62670898 32.11010742 C31.39473476 28.57068107 32.16493465 25.03173077 32.93579102 21.49291992 C33.26906673 19.96147342 33.60175335 18.4298986 33.93383789 16.89819336 C34.41137208 14.69611116 34.8910255 12.49449971 35.37109375 10.29296875 C35.51904892 9.60849167 35.66700409 8.92401459 35.81944275 8.21879578 C36.43184457 5.41872567 37.09264368 2.72206897 38 0 C44.93 0 51.86 0 59 0 C59.6472006 26.33875309 60.16535938 52.65273822 60 79 C55.05 79 50.1 79 45 79 C44.67 66.13 44.34 53.26 44 40 C41.36 52.54 38.72 65.08 36 78 C31.71 78 27.42 78 23 78 C20.36 65.13 17.72 52.26 15 39 C14.67 52.2 14.34 65.4 14 79 C9.38 79 4.76 79 0 79 C0 52.93 0 26.86 0 0 Z " fill="#020202" transform="translate(712,147)"/>
<path d="M0 0 C6.27 0 12.54 0 19 0 C20.3146975 3.94409251 21.36605424 7.36342957 22.125 11.375 C22.29257812 12.24898438 22.46015625 13.12296875 22.6328125 14.0234375 C22.75398437 14.67570312 22.87515625 15.32796875 23 16 C25.1491917 12.77621244 26.024994 10.01585352 27.125 6.3125 C27.74375 4.229375 28.3625 2.14625 29 0 C34.94 0 40.88 0 47 0 C48.20704505 4.82818022 47.38548361 6.28241759 45.55078125 10.828125 C45.02601019 12.19976319 44.50329329 13.5721887 43.98242188 14.9453125 C43.15923982 17.0863154 42.32512406 19.21929496 41.45288086 21.34082031 C36.71395904 32.96164737 36.89062509 40.22674363 41 52 C41.66067919 54.22149635 42.31359233 56.44532399 42.95703125 58.671875 C43.89139859 61.75117365 44.83639284 64.82657108 45.79492188 67.8984375 C46.09591797 68.89617187 46.39691406 69.89390625 46.70703125 70.921875 C46.9800708 71.80456055 47.25311035 72.68724609 47.53442383 73.59667969 C48 76 48 76 47 80 C40.4 80 33.8 80 27 80 C24.78125887 73.04122101 23.1649312 66.20886839 22 59 C20.59630618 61.66127825 19.54281011 64.21971224 18.7109375 67.109375 C18.51290527 67.78967773 18.31487305 68.46998047 18.11083984 69.17089844 C17.8680127 70.02200195 17.62518555 70.87310547 17.375 71.75 C16.199375 75.83375 16.199375 75.83375 15 80 C9.06 80 3.12 80 -3 80 C-4.12443311 74.37783447 -4.12443311 74.37783447 -3.07202148 71.1027832 C-2.8452623 70.3746492 -2.61850311 69.6465152 -2.38487244 68.89631653 C-2.13282547 68.12228989 -1.8807785 67.34826324 -1.62109375 66.55078125 C-1.10678519 64.88105535 -0.59313424 63.21112678 -0.08007812 61.54101562 C0.73643652 58.92939292 1.55994877 56.32044803 2.39624023 53.71508789 C6.9263061 40.47984581 6.9263061 40.47984581 5 27 C4.47436471 25.04728083 3.96068281 23.09131697 3.45703125 21.1328125 C2.63109505 18.09843778 1.79625801 15.06707147 0.94726562 12.0390625 C0.68236328 11.059375 0.41746094 10.0796875 0.14453125 9.0703125 C-0.09934326 8.19133301 -0.34321777 7.31235352 -0.59448242 6.40673828 C-1 4 -1 4 0 0 Z " fill="#020202" transform="translate(686,252)"/>
<path d="M0 0 C4.48226393 4.33032278 5.86277696 8.39074604 6.11499023 14.49047852 C6.13453731 16.82690466 6.13139709 19.16359587 6.109375 21.5 C6.11083023 22.74103989 6.11228546 23.98207977 6.11378479 25.26072693 C6.11170632 28.54497418 6.09073328 31.82844452 6.06280518 35.11254883 C6.05078174 37.12101169 6.05242018 39.12896939 6.05932617 41.13745117 C6.07193091 45.00853302 6.06323802 48.8789423 6.046875 52.75 C6.04981064 53.94387833 6.05274628 55.13775665 6.05577087 56.36781311 C5.93692395 66.8444124 5.93692395 66.8444124 2.61328125 71.55859375 C-4.11463254 76.97017658 -11.04160027 77.16364338 -19.38671875 76.55859375 C-23.45344427 75.88594871 -27.04092476 75.13552134 -29.796875 71.90625 C-32.43094079 67.44061158 -33.50957922 63.49460293 -33.5637207 58.38793945 C-33.57655594 57.33286697 -33.58939117 56.27779449 -33.60261536 55.19075012 C-33.61000229 54.05014633 -33.61738922 52.90954254 -33.625 51.734375 C-33.63307175 50.55900681 -33.64114349 49.38363861 -33.64945984 48.1726532 C-33.6633 45.68193028 -33.67402245 43.19118841 -33.68188477 40.70043945 C-33.69907233 36.90343935 -33.74295803 33.10731557 -33.78710938 29.31054688 C-33.79723865 26.88932931 -33.80575402 24.46810435 -33.8125 22.046875 C-33.83000809 20.91639236 -33.84751617 19.78590973 -33.86555481 18.62117004 C-33.84796607 12.1832374 -33.39006175 6.81884286 -29.38671875 1.55859375 C-21.74867146 -4.90276225 -8.56474598 -4.43004102 0 0 Z " fill="#040303" transform="translate(488.38671875,149.44140625)"/>
<path d="M0 0 C5.28 0 10.56 0 16 0 C16 10.56 16 21.12 16 32 C18.64 32 21.28 32 24 32 C24 21.44 24 10.88 24 0 C29.28 0 34.56 0 40 0 C40 26.07 40 52.14 40 79 C34.72 79 29.44 79 24 79 C24 67.12 24 55.24 24 43 C21.36 43 18.72 43 16 43 C16 54.88 16 66.76 16 79 C10.72 79 5.44 79 0 79 C0 52.93 0 26.86 0 0 Z " fill="#000000" transform="translate(892,147)"/>
<path d="M0 0 C2.7153387 1.26264904 4.9004586 2.60350426 7.14453125 4.58203125 C7.73113525 5.09515869 8.31773926 5.60828613 8.92211914 6.13696289 C9.54594482 6.68989014 10.16977051 7.24281738 10.8125 7.8125 C12.16137235 8.99488976 13.51033316 10.17717862 14.859375 11.359375 C15.54708984 11.96458984 16.23480469 12.56980469 16.94335938 13.19335938 C20.13650914 15.99835799 23.34923664 18.78059239 26.5625 21.5625 C27.4920752 22.3683252 27.4920752 22.3683252 28.44042969 23.19042969 C34.36275465 28.32187558 40.31183992 33.42180832 46.26611328 38.51611328 C48.5947888 40.50902933 50.92188248 42.50378697 53.2487793 44.4987793 C54.41277496 45.49660578 55.57699891 46.49416604 56.74145508 47.49145508 C59.71224273 50.0361205 62.6794238 52.58480749 65.640625 55.140625 C66.84356026 56.17730354 68.04668286 57.21376474 69.25 58.25 C70.1164917 58.99709229 70.1164917 58.99709229 71.00048828 59.75927734 C75.32881366 63.47227128 79.76822737 67.01951732 84.3046875 70.4765625 C84.86414063 70.97929687 85.42359375 71.48203125 86 72 C86 72.66 86 73.32 86 74 C80.53430482 75.82189839 75.66247034 76.20863828 70 75 C65.34357143 72.38935949 61.6042514 68.44557878 57.81347656 64.74072266 C54.81919382 61.86656596 51.6537895 59.19626391 48.5 56.5 C47.24013893 55.40841305 45.98102213 54.3159665 44.72265625 53.22265625 C39.99172549 49.12268057 35.23800047 45.04951652 30.48046875 40.98046875 C28.10323544 38.94696418 25.73144802 36.90733645 23.36328125 34.86328125 C20.45207663 32.35158468 17.53063264 29.85239315 14.60009766 27.36328125 C13.08511987 26.07252203 11.57937873 24.77094449 10.07421875 23.46875 C9.20410156 22.7365625 8.33398438 22.004375 7.4375 21.25 C6.69371094 20.61578125 5.94992188 19.9815625 5.18359375 19.328125 C2.39632704 17.63282861 1.21258242 17.34983451 -2 18 C-4.32990889 19.67824855 -6.33869458 21.31916999 -8.4375 23.25 C-9.68720252 24.36101179 -10.93721095 25.47167957 -12.1875 26.58203125 C-13.13882813 27.43788818 -13.13882813 27.43788818 -14.109375 28.31103516 C-17.01023991 30.90248446 -19.97486928 33.41722258 -22.9375 35.9375 C-27.80803973 40.10619543 -32.65805574 44.29814752 -37.5 48.5 C-51.00157083 60.20929593 -51.00157083 60.20929593 -55.796875 64.25390625 C-57.8165263 65.9617873 -59.7258055 67.69466888 -61.640625 69.52734375 C-66.40164661 73.89673294 -69.43627565 75.48341898 -76 75.5625 C-81.48275862 75.25862069 -81.48275862 75.25862069 -84 74 C-82.70735873 71.10125583 -81.43512432 69.23397474 -79.015625 67.1875 C-78.11831665 66.41974243 -78.11831665 66.41974243 -77.20288086 65.63647461 C-76.23620483 64.82641968 -76.23620483 64.82641968 -75.25 64 C-74.5804126 63.42967041 -73.9108252 62.85934082 -73.22094727 62.27172852 C-71.83003844 61.08753442 -70.43686448 59.90599602 -69.04150391 58.72705078 C-66.56806466 56.63459572 -64.1102808 54.52438899 -61.65356445 52.41235352 C-58.19777222 49.44230929 -54.73311964 46.48259528 -51.27050781 43.52050781 C-49.53417979 42.03488479 -47.79820262 40.54885365 -46.0625 39.0625 C-45.48822266 38.57072266 -44.91394531 38.07894531 -44.32226562 37.57226562 C-40.01258985 33.87757146 -35.72307702 30.16009679 -31.4375 26.4375 C-21.09290522 17.45884527 -10.63584082 8.63229565 0 0 Z " fill="#FBFBFB" transform="translate(210,152)"/>
<path d="M0 0 C5.28 0 10.56 0 16 0 C16.33 7.92 16.66 15.84 17 24 C19.26214978 16.47675211 19.26214978 16.47675211 21.51733398 8.95141602 C21.79907471 8.01998779 22.08081543 7.08855957 22.37109375 6.12890625 C22.65911865 5.17056885 22.94714355 4.21223145 23.24389648 3.22485352 C24 1 24 1 25 0 C27.53049402 -0.07313567 30.03304837 -0.09247527 32.5625 -0.0625 C33.62887695 -0.05573242 33.62887695 -0.05573242 34.71679688 -0.04882812 C36.47790013 -0.03700864 38.23896036 -0.01907263 40 0 C38.47126367 5.20847625 36.88859688 10.3918007 35.17578125 15.54296875 C34.86962891 16.47173828 34.56347656 17.40050781 34.24804688 18.35742188 C33.61969789 20.25821035 32.98416866 22.15663897 32.34179688 24.05273438 C32.03951172 24.97763672 31.73722656 25.90253906 31.42578125 26.85546875 C31.15161377 27.67684326 30.87744629 28.49821777 30.5949707 29.34448242 C29.11284945 35.95959643 30.43413924 41.42111392 32.40625 47.70703125 C32.65040649 48.51363693 32.89456299 49.32024261 33.14611816 50.15129089 C33.92167631 52.70789743 34.71020967 55.26025808 35.5 57.8125 C36.28734803 60.38327059 37.07196137 62.95484095 37.85388184 65.52726746 C38.33985134 67.12321545 38.82940649 68.71807685 39.32287598 70.3117218 C41 75.77974586 41 75.77974586 41 78 C35.72 78 30.44 78 25 78 C22.03524056 69.41780162 19.53937421 60.71623041 17 52 C16.67 60.58 16.34 69.16 16 78 C10.72 78 5.44 78 0 78 C0 52.26 0 26.52 0 0 Z " fill="#020202" transform="translate(583,147)"/>
<path d="M0 0 C1.29550781 -0.02578125 2.59101562 -0.0515625 3.92578125 -0.078125 C9.39154346 0.3986393 12.35965373 1.78585163 16.046875 5.8515625 C18.18896961 10.28875848 18.13848956 13.77805957 17.9375 18.625 C17.91945313 19.45644531 17.90140625 20.28789062 17.8828125 21.14453125 C17.83601573 23.18019074 17.76428298 25.2152509 17.6875 27.25 C12.7375 27.25 7.7875 27.25 2.6875 27.25 C2.3575 22.3 2.0275 17.35 1.6875 12.25 C0.6975 12.25 -0.2925 12.25 -1.3125 12.25 C-2.33022979 18.0479758 -2.54665931 22.4644078 0.890625 27.4375 C3.22831085 30.05642056 5.73387574 32.49905666 8.28515625 34.90869141 C10.20819628 36.74803367 11.98635353 38.69592464 13.75 40.6875 C14.27722656 41.26371094 14.80445313 41.83992188 15.34765625 42.43359375 C19.21165095 47.67195391 19.02280911 52.92411952 19 59.1875 C19.01611328 60.06857422 19.03222656 60.94964844 19.04882812 61.85742188 C19.05273189 67.06894994 18.63613231 70.76356424 15.6875 75.25 C9.07222886 80.16904777 1.63551961 79.78309888 -6.3125 79.25 C-11.43009207 78.12942381 -14.41370245 75.59819633 -17.3125 71.25 C-18.5388757 68.79724859 -18.42665314 67.1994219 -18.41015625 64.4609375 C-18.40693359 63.51992187 -18.40371094 62.57890625 -18.40039062 61.609375 C-18.39201172 60.62453125 -18.38363281 59.6396875 -18.375 58.625 C-18.37048828 57.63242188 -18.36597656 56.63984375 -18.36132812 55.6171875 C-18.34952161 53.16143278 -18.33158582 50.70570894 -18.3125 48.25 C-13.0325 48.25 -7.7525 48.25 -2.3125 48.25 C-2.3125 54.52 -2.3125 60.79 -2.3125 67.25 C-0.3325 66.755 -0.3325 66.755 1.6875 66.25 C2.60954383 57.84618788 2.60954383 57.84618788 0.48046875 49.890625 C-1.33526905 47.83250534 -3.24070421 46.05092496 -5.3125 44.25 C-13.51464042 36.56823707 -18.24681977 32.07805573 -18.64794922 20.63745117 C-18.76562813 14.64962879 -18.47626672 10.44977927 -15.3125 5.25 C-10.33011959 0.64129812 -6.67700916 0.07925233 0 0 Z " fill="#020202" transform="translate(667.3125,146.75)"/>
<path d="M0 0 C3.81778696 2.30306028 5.2522382 4.40905834 6.6484375 8.59765625 C6.72817226 9.93291342 6.75615088 11.27177708 6.74609375 12.609375 C6.74287109 13.36669922 6.73964844 14.12402344 6.73632812 14.90429688 C6.72375977 16.08282227 6.72375977 16.08282227 6.7109375 17.28515625 C6.70642578 18.08244141 6.70191406 18.87972656 6.69726562 19.70117188 C6.685496 21.66669882 6.66756098 23.6321871 6.6484375 25.59765625 C2.0284375 25.59765625 -2.5915625 25.59765625 -7.3515625 25.59765625 C-7.6815625 20.64765625 -8.0115625 15.69765625 -8.3515625 10.59765625 C-9.6715625 10.59765625 -10.9915625 10.59765625 -12.3515625 10.59765625 C-12.3515625 28.41765625 -12.3515625 46.23765625 -12.3515625 64.59765625 C-11.0315625 64.59765625 -9.7115625 64.59765625 -8.3515625 64.59765625 C-8.0215625 58.32765625 -7.6915625 52.05765625 -7.3515625 45.59765625 C-2.4015625 45.59765625 2.5484375 45.59765625 7.6484375 45.59765625 C7.7837132 49.30721665 7.882697 53.01182094 7.9609375 56.72265625 C8.00283203 57.769375 8.04472656 58.81609375 8.08789062 59.89453125 C8.22607492 68.62777896 8.22607492 68.62777896 5.390625 72.22265625 C-0.23847853 77.09800518 -6.59239436 78.14512649 -13.92578125 77.8828125 C-19.24924365 77.25702707 -23.06601749 75.94912664 -26.7890625 72.03515625 C-29.12326273 68.39380389 -29.48626855 66.47466023 -29.52856445 62.1574707 C-29.54139969 61.01901199 -29.55423492 59.88055328 -29.56745911 58.70759583 C-29.57484604 57.47119858 -29.58223297 56.23480133 -29.58984375 54.9609375 C-29.5979155 53.6929985 -29.60598724 52.42505951 -29.61430359 51.11869812 C-29.62815676 48.42943661 -29.63916878 45.74029819 -29.64672852 43.05102539 C-29.65776277 39.61896706 -29.69212544 36.18756252 -29.73190022 32.75573444 C-29.76446456 29.47003402 -29.76885469 26.18427469 -29.77734375 22.8984375 C-29.79485184 21.67216141 -29.81235992 20.44588531 -29.83039856 19.18244934 C-29.81327291 12.42589486 -29.49690119 8.03891361 -25.3515625 2.59765625 C-18.65628384 -3.20491859 -7.98858941 -3.34254499 0 0 Z " fill="#020202" transform="translate(548.3515625,148.40234375)"/>
<path d="M0 0 C2.97922593 -0.02683987 5.95821295 -0.04676037 8.9375 -0.0625 C9.78763672 -0.07087891 10.63777344 -0.07925781 11.51367188 -0.08789062 C12.32255859 -0.09111328 13.13144531 -0.09433594 13.96484375 -0.09765625 C14.7137085 -0.10289307 15.46257324 -0.10812988 16.23413086 -0.11352539 C18 0 18 0 19 1 C19.09413687 3.05556661 19.11742998 5.11440181 19.11352539 7.17211914 C19.11367142 7.81600082 19.11381744 8.45988251 19.1139679 9.12327576 C19.11326885 11.26060303 19.10547691 13.39784413 19.09765625 15.53515625 C19.09579204 17.01346285 19.09436815 18.49177007 19.09336853 19.97007751 C19.08954359 23.86798802 19.07971352 27.76586149 19.06866455 31.66375732 C19.05844992 35.63846333 19.0538708 39.61317529 19.04882812 43.58789062 C19.03809122 51.391944 19.02101509 59.19596682 19 67 C20.60681641 66.98259766 20.60681641 66.98259766 22.24609375 66.96484375 C23.64322743 66.95546701 25.04036299 66.94636669 26.4375 66.9375 C27.14455078 66.92912109 27.85160156 66.92074219 28.58007812 66.91210938 C30.38693559 66.90346412 32.19387603 66.94779989 34 67 C35 68 35 68 35.1328125 70.25 C35.13023437 71.1575 35.12765625 72.065 35.125 73 C35.12886719 74.36125 35.12886719 74.36125 35.1328125 75.75 C35 78 35 78 34 79 C31.49075847 79.10087212 29.00963616 79.13972032 26.5 79.1328125 C25.74912109 79.13376923 24.99824219 79.13472595 24.22460938 79.13571167 C22.63411373 79.13639338 21.04361533 79.13453972 19.453125 79.13037109 C17.01035345 79.12502267 14.56776579 79.13031634 12.125 79.13671875 C10.58333293 79.13605797 9.04166597 79.1347768 7.5 79.1328125 C6.76458984 79.13483673 6.02917969 79.13686096 5.27148438 79.13894653 C0.11495161 79.11495161 0.11495161 79.11495161 -1 78 C-1.10025884 75.63765248 -1.13618937 73.30453142 -1.12939453 70.94165039 C-1.13114685 70.20344559 -1.13289917 69.46524078 -1.13470459 68.70466614 C-1.13912366 66.25230594 -1.13618464 63.80001725 -1.1328125 61.34765625 C-1.1334856 59.64993781 -1.13445567 57.95221946 -1.13571167 56.25450134 C-1.13718878 52.69089849 -1.13503395 49.12732065 -1.13037109 45.5637207 C-1.12467812 40.98911322 -1.12794999 36.41456446 -1.13394356 31.83995914 C-1.13755252 28.3321844 -1.13640896 24.82442364 -1.13381577 21.31664848 C-1.1331472 19.62969391 -1.13397247 17.94273809 -1.13629532 16.25578499 C-1.13882685 13.89973706 -1.13497396 11.54378491 -1.12939453 9.18774414 C-1.13141876 8.48584961 -1.13344299 7.78395508 -1.13552856 7.06079102 C-1.11426364 2.22852728 -1.11426364 2.22852728 0 0 Z " fill="#060606" transform="translate(598,253)"/>
<path d="M0 0 C11.88 0 23.76 0 36 0 C36 3.63 36 7.26 36 11 C32.7 11 29.4 11 26 11 C26 33.44 26 55.88 26 79 C20.72 79 15.44 79 10 79 C10 56.56 10 34.12 10 11 C6.7 11 3.4 11 0 11 C0 7.37 0 3.74 0 0 Z " fill="#000000" transform="translate(833,147)"/>
<path d="M0 0 C5.28 0 10.56 0 16 0 C16 22.44 16 44.88 16 68 C20.95 68 25.9 68 31 68 C31 71.63 31 75.26 31 79 C20.77 79 10.54 79 0 79 C0 52.93 0 26.86 0 0 Z " fill="#000000" transform="translate(400,147)"/>
<path d="M0 0 C5.28 0 10.56 0 16 0 C16 26.07 16 52.14 16 79 C10.72 79 5.44 79 0 79 C0 52.93 0 26.86 0 0 Z " fill="#010101" transform="translate(794,147)"/>
<path d="M0 0 C3.88446678 2.58964452 6.69907021 5.64814041 8.8125 9.875 C9.4085831 15.6065683 9.04856471 19.96870834 5.8125 24.875 C4.0360989 27.01393194 2.21688036 29.09301631 0.3359375 31.140625 C-2.82001489 34.73355541 -2.4058383 38.38513786 -2.50390625 42.9453125 C-2.52468735 43.74154022 -2.54546844 44.53776794 -2.56687927 45.35812378 C-2.63234149 47.90532685 -2.69124415 50.45263425 -2.75 53 C-2.7931884 54.72527127 -2.83680279 56.45053193 -2.88085938 58.17578125 C-2.98801945 62.40874685 -3.08929623 66.64181753 -3.1875 70.875 C-6.4875 70.875 -9.7875 70.875 -13.1875 70.875 C-13.20151855 69.19543213 -13.20151855 69.19543213 -13.21582031 67.48193359 C-13.25582161 63.31063684 -13.32160805 59.14006978 -13.39501953 54.96923828 C-13.42317053 53.16725061 -13.44441422 51.36514081 -13.45849609 49.56298828 C-13.48000755 46.96583802 -13.52669757 44.37014705 -13.578125 41.7734375 C-13.57935364 40.9732016 -13.58058228 40.1729657 -13.58184814 39.34848022 C-13.75361922 32.72511734 -16.21792834 29.29475946 -20.375 24.1875 C-23.15902889 20.63546314 -23.54719647 17.46337039 -23.45703125 12.99609375 C-22.87383009 8.40655422 -20.79982277 5.28756597 -17.421875 2.328125 C-11.57263919 -1.77094577 -6.84975462 -2.41756045 0 0 Z " fill="#F7F7F7" transform="translate(217.1875,216.125)"/>
<path d="M0 0 C3.63 0 7.26 0 11 0 C14.24774137 3.24774137 14.35527743 4.07986264 14.4168396 8.44677734 C14.41076691 9.16559082 14.40469421 9.8844043 14.3984375 10.625 C14.40274277 11.7399585 14.40274277 11.7399585 14.40713501 12.87744141 C14.40917476 14.4475989 14.403651 16.01778186 14.39111328 17.58789062 C14.37505703 19.99146332 14.39096352 22.39335461 14.41015625 24.796875 C14.4081738 26.32292038 14.40433009 27.84896471 14.3984375 29.375 C14.40754654 30.45322021 14.40754654 30.45322021 14.4168396 31.55322266 C14.35527743 35.92013736 14.24774137 36.75225863 11 40 C7.37 40 3.74 40 0 40 C0 26.8 0 13.6 0 0 Z " fill="#FCFCFC" transform="translate(152,234)"/>
<path d="M0 0 C0 13.2 0 26.4 0 40 C-10 40 -10 40 -13 38 C-14.73704695 32.78885916 -14.26499452 27.20489409 -14.29516602 21.7487793 C-14.30670859 20.29295144 -14.32719667 18.83716665 -14.35668945 17.3815918 C-14.39934461 15.27623799 -14.41552823 13.17213833 -14.42578125 11.06640625 C-14.44036377 9.80771729 -14.45494629 8.54902832 -14.4699707 7.25219727 C-14 4 -14 4 -12.59838867 1.55834961 C-10 0 -10 0 0 0 Z " fill="#FAFAFA" transform="translate(270,234)"/>
<path d="M0 0 C21.45 0 42.9 0 65 0 C65 2.64 65 5.28 65 8 C43.88 8 22.76 8 1 8 C0 6 0 6 0 0 Z " fill="#FDFDFD" transform="translate(135,291)"/>
<path d="M0 0 C0 2.97 0 5.94 0 9 C-18.15 9 -36.3 9 -55 9 C-55.66 7.35 -56.32 5.7 -57 4 C-58.66342837 2.33657163 -60.7825709 2.63951903 -63.0625 2.4375 C-64.44115234 2.31181641 -64.44115234 2.31181641 -65.84765625 2.18359375 C-66.91306641 2.09271484 -66.91306641 2.09271484 -68 2 C-68 1.67 -68 1.34 -68 1 C-60.61046441 0.86857789 -53.22091245 0.7381189 -45.83133888 0.60884857 C-42.39910687 0.54877704 -38.96688108 0.48838881 -35.53466797 0.42724609 C-31.5778164 0.35677177 -27.62094041 0.28773019 -23.6640625 0.21875 C-21.83846298 0.18593933 -21.83846298 0.18593933 -19.97598267 0.15246582 C-13.31604641 0.0375646 -6.66092583 -0.02196513 0 0 Z " fill="#FDFDFD" transform="translate(285,290)"/>
<path d="M0 0 C3.53684081 2.99862591 5.78275426 5.08823745 6.3125 9.75 C5.92220973 13.80901885 4.50412622 15.83301684 2 19 C-1.73309894 20.86654947 -5.93447193 20.5424959 -10 20 C-13.125 18.0625 -13.125 18.0625 -15 15 C-15.857337 11.11340562 -15.91303992 7.66985628 -13.97265625 4.12109375 C-9.78736875 -1.15822027 -6.33401128 -1.52889927 0 0 Z " fill="#090808" transform="translate(216,186)"/>
<path d="M0 0 C1.65 0.33 3.3 0.66 5 1 C5 19.15 5 37.3 5 56 C3.02 56.495 3.02 56.495 1 57 C-1 55 -1 55 -1.24723816 52.71617126 C-1.24581314 51.76432449 -1.24438812 50.81247772 -1.24291992 49.83178711 C-1.24599655 48.75404526 -1.24907318 47.67630341 -1.25224304 46.56590271 C-1.24505753 45.39817825 -1.23787201 44.2304538 -1.23046875 43.02734375 C-1.23001053 41.83395889 -1.22955231 40.64057404 -1.2290802 39.411026 C-1.22605506 36.88492846 -1.218161 34.35883283 -1.20581055 31.83276367 C-1.18756013 27.95029142 -1.18530076 24.06805752 -1.18554688 20.18554688 C-1.1806317 17.73697709 -1.17480338 15.28840893 -1.16796875 12.83984375 C-1.16685593 11.67009506 -1.1657431 10.50034637 -1.16459656 9.29515076 C-1.15502678 7.68326622 -1.15502678 7.68326622 -1.14526367 6.03881836 C-1.14145187 5.08776718 -1.13764008 4.136716 -1.13371277 3.15684509 C-1 1 -1 1 0 0 Z " fill="#E8E8E8" transform="translate(472,158)"/>
<path d="M0 0 C4.6 2.2 4.6 2.2 6 5 C6.68571429 11.97142857 6.68571429 11.97142857 4 16 C0.68785252 18.20809832 -1.14990423 18.81013892 -5.0625 18.55078125 C-8.74685029 17.50341554 -10.12308191 15.16729927 -12 12 C-12.60502091 8.29424694 -12.27201518 6.55639469 -10.625 3.1875 C-7.66894212 -0.79180868 -4.74134971 -0.32144744 0 0 Z " fill="#050505" transform="translate(213,222)"/>
<path d="M0 0 C3.3 0 6.6 0 10 0 C10.05384114 3.60436513 10.0935974 7.20792978 10.125 10.8125 C10.14175781 11.83666016 10.15851563 12.86082031 10.17578125 13.91601562 C10.18222656 14.89892578 10.18867188 15.88183594 10.1953125 16.89453125 C10.20578613 17.80050049 10.21625977 18.70646973 10.22705078 19.63989258 C10 22 10 22 8 25 C5 25.3125 5 25.3125 2 25 C0 23 0 23 -0.22705078 20.66162109 C-0.21657715 19.70852051 -0.20610352 18.75541992 -0.1953125 17.7734375 C-0.18886719 16.7421875 -0.18242187 15.7109375 -0.17578125 14.6484375 C-0.15902344 13.56820313 -0.14226562 12.48796875 -0.125 11.375 C-0.11597656 10.28703125 -0.10695312 9.1990625 -0.09765625 8.078125 C-0.07403518 5.38532351 -0.03816333 2.69263465 0 0 Z " fill="#F3F4F3" transform="translate(204,303)"/>
<path d="M0 0 C1.875 1.0625 1.875 1.0625 3 3 C2.875 6.5625 2.875 6.5625 2 10 C-1 12 -1 12 -4.125 11.6875 C-7 11 -7 11 -8 10 C-8.37086093 4.1589404 -8.37086093 4.1589404 -8 2 C-4.76746204 -0.15502531 -3.74849077 -0.46856135 0 0 Z " fill="#F8F8F8" transform="translate(214,190)"/>
<path d="M0 0 C2.75164432 -0.13517903 5.49664521 -0.23415251 8.25 -0.3125 C9.02730469 -0.35439453 9.80460938 -0.39628906 10.60546875 -0.43945312 C14.5749616 -0.52427135 16.37140824 -0.51218588 19.53125 2.0625 C21.3593819 5.7187638 21.40211117 8.24352633 21.25 12.3125 C21.21390625 13.56675781 21.1778125 14.82101563 21.140625 16.11328125 C21.07101562 17.54220703 21.07101562 17.54220703 21 19 C19.35 19.33 17.7 19.66 16 20 C16 13.73 16 7.46 16 1 C10.72 1 5.44 1 0 1 C0 0.67 0 0.34 0 0 Z " fill="#EAEAEA" transform="translate(649,194)"/>
<path d="M0 0 C2.31 0 4.62 0 7 0 C7 4.62 7 9.24 7 14 C4.69 14 2.38 14 0 14 C0 9.38 0 4.76 0 0 Z " fill="#F2F2F2" transform="translate(218,303)"/>
<path d="M0 0 C1.98 0.495 1.98 0.495 4 1 C4 5.95 4 10.9 4 16 C8.62 16 13.24 16 18 16 C18 16.33 18 16.66 18 17 C13.71 17 9.42 17 5 17 C4.67 17.66 4.34 18.32 4 19 C0.72997518 16.05697766 -0.82929768 14.4110181 -1.3671875 9.96484375 C-1.37438678 6.94474407 -1.32688355 4.00265889 -1 1 C-0.67 0.67 -0.34 0.34 0 0 Z " fill="#F1F1F1" transform="translate(666,158)"/>
<path d="M0 0 C0.33 0 0.66 0 1 0 C1.33 6.27 1.66 12.54 2 19 C2.33 19 2.66 19 3 19 C3 24.28 3 29.56 3 35 C3.99 35.33 4.98 35.66 6 36 C5.505 36.495 5.505 36.495 5 37 C7.31 37.33 9.62 37.66 12 38 C12 38.33 12 38.66 12 39 C10.7625 39.12375 9.525 39.2475 8.25 39.375 C4.79327201 39.7206728 3.31109404 40.34445298 0 42 C0 28.14 0 14.28 0 0 Z " fill="#010101" transform="translate(148,239)"/>
<path d="M0 0 C3.3 0 6.6 0 10 0 C10 2.64 10 5.28 10 8 C6.7 8 3.4 8 0 8 C0 5.36 0 2.72 0 0 Z " fill="#F4F4F4" transform="translate(204,291)"/>
<path d="M0 0 C2.4375 0.6875 2.4375 0.6875 5 2 C5.8125 4.625 5.8125 4.625 6 7 C4.3125 8.625 4.3125 8.625 2 10 C-0.6875 9.4375 -0.6875 9.4375 -3 8 C-4.0625 6.125 -4.0625 6.125 -4 4 C-2.0625 1.75 -2.0625 1.75 0 0 Z " fill="#F1F1F1" transform="translate(209,226)"/>
<path d="M0 0 C0.33 0 0.66 0 1 0 C1 3.3 1 6.6 1 10 C-0.32 10 -1.64 10 -3 10 C-2.69201674 8.51988629 -2.378482 7.04092675 -2.0625 5.5625 C-1.88847656 4.73878906 -1.71445312 3.91507813 -1.53515625 3.06640625 C-1 1 -1 1 0 0 Z " fill="#F0F0F0" transform="translate(755,193)"/>
<path d="M0 0 C2.31 0 4.62 0 7 0 C7.33 0.99 7.66 1.98 8 3 C5.36 3 2.72 3 0 3 C0 2.01 0 1.02 0 0 Z " fill="#E5E5E6" transform="translate(218,296)"/>
</svg>
